<mxfile host="app.diagrams.net" modified="2020-11-05T01:52:29.373Z" agent="5.0 (Macintosh; Intel Mac OS X 10_15_6) AppleWebKit/537.36 (KHTML, like Gecko) Chrome/85.0.4183.121 Safari/537.36" etag="-H3-_qCWF4xcrF9AaAyy" version="13.7.8" type="github">
  <diagram name="Page-1" id="c7488fd3-1785-93aa-aadb-54a6760d102a">
    <mxGraphModel dx="1185" dy="692" grid="1" gridSize="10" guides="1" tooltips="1" connect="1" arrows="1" fold="1" page="1" pageScale="1" pageWidth="1100" pageHeight="850" background="#ffffff" math="0" shadow="0">
      <root>
        <mxCell id="0" />
        <mxCell id="1" parent="0" />
        <mxCell id="2b4e8129b02d487f-1" value="Pool" style="swimlane;html=1;childLayout=stackLayout;horizontal=1;startSize=20;horizontalStack=0;rounded=0;shadow=0;labelBackgroundColor=none;strokeWidth=1;fontFamily=Verdana;fontSize=8;align=center;" parent="1" vertex="1">
          <mxGeometry x="180" y="70" width="680" height="540" as="geometry">
            <mxRectangle x="180" y="70" width="50" height="20" as="alternateBounds" />
          </mxGeometry>
        </mxCell>
        <mxCell id="2b4e8129b02d487f-2" value="Subscriptions" style="swimlane;html=1;startSize=20;horizontal=0;" parent="2b4e8129b02d487f-1" vertex="1">
          <mxGeometry y="20" width="680" height="210" as="geometry">
            <mxRectangle y="20" width="680" height="20" as="alternateBounds" />
          </mxGeometry>
        </mxCell>
        <mxCell id="gCNTeTK20-_O6Kn0fKNS-86" style="edgeStyle=orthogonalEdgeStyle;rounded=0;orthogonalLoop=1;jettySize=auto;html=1;entryX=0;entryY=0.5;entryDx=0;entryDy=0;" parent="2b4e8129b02d487f-2" source="gCNTeTK20-_O6Kn0fKNS-70" target="gCNTeTK20-_O6Kn0fKNS-59" edge="1">
          <mxGeometry relative="1" as="geometry" />
        </mxCell>
        <mxCell id="gCNTeTK20-_O6Kn0fKNS-70" value="obtener datos" style="rounded=1;whiteSpace=wrap;html=1;shadow=0;labelBackgroundColor=none;strokeWidth=1;fontFamily=Verdana;fontSize=8;align=center;" parent="2b4e8129b02d487f-2" vertex="1">
          <mxGeometry x="180" y="15.12" width="70" height="37" as="geometry" />
        </mxCell>
        <mxCell id="gCNTeTK20-_O6Kn0fKNS-59" value="Validar stock, precios, promociones, etc.&lt;br&gt;Generar Orden de Pago / Pre orden" style="rounded=1;whiteSpace=wrap;html=1;shadow=0;labelBackgroundColor=none;strokeWidth=1;fontFamily=Verdana;fontSize=8;align=center;" parent="2b4e8129b02d487f-2" vertex="1">
          <mxGeometry x="301" y="15.12" width="169" height="84" as="geometry" />
        </mxCell>
        <mxCell id="2b4e8129b02d487f-7" value="Modificar Suscripcion" style="rounded=1;whiteSpace=wrap;html=1;shadow=0;labelBackgroundColor=none;strokeWidth=1;fontFamily=Verdana;fontSize=8;align=center;" parent="2b4e8129b02d487f-2" vertex="1">
          <mxGeometry x="50" y="19.99999999999997" width="70" height="37" as="geometry" />
        </mxCell>
        <mxCell id="gCNTeTK20-_O6Kn0fKNS-65" style="edgeStyle=orthogonalEdgeStyle;rounded=0;orthogonalLoop=1;jettySize=auto;html=1;entryX=0;entryY=0.5;entryDx=0;entryDy=0;entryPerimeter=0;" parent="2b4e8129b02d487f-2" source="gCNTeTK20-_O6Kn0fKNS-30" target="gCNTeTK20-_O6Kn0fKNS-64" edge="1">
          <mxGeometry relative="1" as="geometry" />
        </mxCell>
        <mxCell id="gCNTeTK20-_O6Kn0fKNS-64" value="cron" style="strokeWidth=1;html=1;shape=mxgraph.flowchart.decision;whiteSpace=wrap;rounded=1;shadow=0;labelBackgroundColor=none;fontFamily=Verdana;fontSize=8;align=center;" parent="2b4e8129b02d487f-2" vertex="1">
          <mxGeometry x="180" y="89.99000000000005" width="30" height="30" as="geometry" />
        </mxCell>
        <mxCell id="gCNTeTK20-_O6Kn0fKNS-75" style="edgeStyle=orthogonalEdgeStyle;rounded=0;orthogonalLoop=1;jettySize=auto;html=1;exitX=1.011;exitY=0.105;exitDx=0;exitDy=0;entryX=0;entryY=0.5;entryDx=0;entryDy=0;exitPerimeter=0;" parent="2b4e8129b02d487f-2" source="gCNTeTK20-_O6Kn0fKNS-30" target="gCNTeTK20-_O6Kn0fKNS-70" edge="1">
          <mxGeometry relative="1" as="geometry" />
        </mxCell>
        <mxCell id="gCNTeTK20-_O6Kn0fKNS-30" value="" style="rounded=1;arcSize=10;dashed=1;fillColor=none;gradientColor=none;dashPattern=8 3 1 3;strokeWidth=2;" parent="2b4e8129b02d487f-2" vertex="1">
          <mxGeometry x="30" y="15.120000000000001" width="110" height="179.75" as="geometry" />
        </mxCell>
        <mxCell id="2b4e8129b02d487f-6" value="Crear Suscripcion" style="rounded=1;whiteSpace=wrap;html=1;shadow=0;labelBackgroundColor=none;strokeWidth=1;fontFamily=Verdana;fontSize=8;align=center;" parent="2b4e8129b02d487f-2" vertex="1">
          <mxGeometry x="50" y="62.99999999999997" width="70" height="37" as="geometry" />
        </mxCell>
        <mxCell id="2b4e8129b02d487f-9" value="Obtener Suscripciones" style="rounded=1;whiteSpace=wrap;html=1;shadow=0;labelBackgroundColor=none;strokeWidth=1;fontFamily=Verdana;fontSize=8;align=center;" parent="2b4e8129b02d487f-2" vertex="1">
          <mxGeometry x="50" y="102.99999999999997" width="70" height="37" as="geometry" />
        </mxCell>
        <mxCell id="gCNTeTK20-_O6Kn0fKNS-31" style="edgeStyle=orthogonalEdgeStyle;rounded=0;orthogonalLoop=1;jettySize=auto;html=1;exitX=0.5;exitY=1;exitDx=0;exitDy=0;" parent="2b4e8129b02d487f-2" source="gCNTeTK20-_O6Kn0fKNS-30" target="gCNTeTK20-_O6Kn0fKNS-30" edge="1">
          <mxGeometry relative="1" as="geometry" />
        </mxCell>
        <mxCell id="gCNTeTK20-_O6Kn0fKNS-81" value="orden" style="rounded=1;whiteSpace=wrap;html=1;shadow=0;labelBackgroundColor=none;strokeWidth=1;fontFamily=Verdana;fontSize=8;align=center;" parent="2b4e8129b02d487f-2" vertex="1">
          <mxGeometry x="430" y="140" width="70" height="37" as="geometry" />
        </mxCell>
        <mxCell id="gCNTeTK20-_O6Kn0fKNS-28" value="Cancelar Suscripcion" style="rounded=1;whiteSpace=wrap;html=1;shadow=0;labelBackgroundColor=none;strokeWidth=1;fontFamily=Verdana;fontSize=8;align=center;" parent="2b4e8129b02d487f-2" vertex="1">
          <mxGeometry x="50" y="149.99999999999997" width="70" height="37" as="geometry" />
        </mxCell>
        <mxCell id="2b4e8129b02d487f-3" value="Magento" style="swimlane;html=1;startSize=20;horizontal=0;" parent="2b4e8129b02d487f-1" vertex="1">
          <mxGeometry y="230" width="680" height="160" as="geometry">
            <mxRectangle y="230" width="680" height="20" as="alternateBounds" />
          </mxGeometry>
        </mxCell>
        <mxCell id="2b4e8129b02d487f-15" value="Login" style="strokeWidth=1;html=1;shape=mxgraph.flowchart.decision;whiteSpace=wrap;rounded=1;shadow=0;labelBackgroundColor=none;fontFamily=Verdana;fontSize=8;align=center;" parent="2b4e8129b02d487f-3" vertex="1">
          <mxGeometry x="30" y="27.000000000000057" width="30" height="30" as="geometry" />
        </mxCell>
        <mxCell id="gCNTeTK20-_O6Kn0fKNS-53" value="orden" style="rounded=1;whiteSpace=wrap;html=1;shadow=0;labelBackgroundColor=none;strokeWidth=1;fontFamily=Verdana;fontSize=8;align=center;" parent="2b4e8129b02d487f-3" vertex="1">
          <mxGeometry x="280" y="20" width="70" height="37" as="geometry" />
        </mxCell>
        <mxCell id="2b4e8129b02d487f-4" value="App" style="swimlane;html=1;startSize=20;horizontal=0;" parent="2b4e8129b02d487f-1" vertex="1">
          <mxGeometry y="390" width="680" height="150" as="geometry">
            <mxRectangle y="250" width="680" height="20" as="alternateBounds" />
          </mxGeometry>
        </mxCell>
        <mxCell id="gCNTeTK20-_O6Kn0fKNS-22" value="Login" style="strokeWidth=1;html=1;shape=mxgraph.flowchart.decision;whiteSpace=wrap;rounded=1;shadow=0;labelBackgroundColor=none;fontFamily=Verdana;fontSize=8;align=center;" parent="2b4e8129b02d487f-4" vertex="1">
          <mxGeometry x="30" y="20.000000000000057" width="30" height="30" as="geometry" />
        </mxCell>
        <mxCell id="gCNTeTK20-_O6Kn0fKNS-56" style="edgeStyle=orthogonalEdgeStyle;rounded=0;orthogonalLoop=1;jettySize=auto;html=1;entryX=0.45;entryY=1.018;entryDx=0;entryDy=0;entryPerimeter=0;" parent="2b4e8129b02d487f-1" source="2b4e8129b02d487f-15" target="gCNTeTK20-_O6Kn0fKNS-30" edge="1">
          <mxGeometry relative="1" as="geometry" />
        </mxCell>
        <mxCell id="gCNTeTK20-_O6Kn0fKNS-58" style="edgeStyle=orthogonalEdgeStyle;rounded=0;orthogonalLoop=1;jettySize=auto;html=1;exitX=1;exitY=0.5;exitDx=0;exitDy=0;exitPerimeter=0;entryX=0.708;entryY=1.004;entryDx=0;entryDy=0;entryPerimeter=0;" parent="2b4e8129b02d487f-1" source="gCNTeTK20-_O6Kn0fKNS-22" target="gCNTeTK20-_O6Kn0fKNS-30" edge="1">
          <mxGeometry relative="1" as="geometry">
            <mxPoint x="110" y="220" as="targetPoint" />
          </mxGeometry>
        </mxCell>
        <mxCell id="gCNTeTK20-_O6Kn0fKNS-82" style="edgeStyle=orthogonalEdgeStyle;rounded=0;orthogonalLoop=1;jettySize=auto;html=1;exitX=1;exitY=0.5;exitDx=0;exitDy=0;entryX=0.5;entryY=1;entryDx=0;entryDy=0;" parent="2b4e8129b02d487f-1" source="gCNTeTK20-_O6Kn0fKNS-53" target="gCNTeTK20-_O6Kn0fKNS-81" edge="1">
          <mxGeometry relative="1" as="geometry">
            <Array as="points">
              <mxPoint x="410" y="269" />
              <mxPoint x="465" y="269" />
            </Array>
          </mxGeometry>
        </mxCell>
        <mxCell id="gCNTeTK20-_O6Kn0fKNS-84" style="edgeStyle=orthogonalEdgeStyle;rounded=0;orthogonalLoop=1;jettySize=auto;html=1;" parent="2b4e8129b02d487f-1" source="gCNTeTK20-_O6Kn0fKNS-59" target="gCNTeTK20-_O6Kn0fKNS-53" edge="1">
          <mxGeometry relative="1" as="geometry">
            <mxPoint x="341" y="150" as="targetPoint" />
          </mxGeometry>
        </mxCell>
        <mxCell id="gCNTeTK20-_O6Kn0fKNS-9" value="Instaleap" style="swimlane;html=1;startSize=20;horizontal=0;" parent="1" vertex="1">
          <mxGeometry x="180" y="610" width="680" height="150" as="geometry">
            <mxRectangle x="180" y="610" width="680" height="20" as="alternateBounds" />
          </mxGeometry>
        </mxCell>
        <mxCell id="gCNTeTK20-_O6Kn0fKNS-11" value="Job" style="rounded=1;whiteSpace=wrap;html=1;shadow=0;labelBackgroundColor=none;strokeWidth=1;fontFamily=Verdana;fontSize=8;align=center;" parent="gCNTeTK20-_O6Kn0fKNS-9" vertex="1">
          <mxGeometry x="260" y="30.00000000000003" width="70" height="37" as="geometry" />
        </mxCell>
        <mxCell id="gCNTeTK20-_O6Kn0fKNS-62" value="Horarios" style="rounded=1;whiteSpace=wrap;html=1;shadow=0;labelBackgroundColor=none;strokeWidth=1;fontFamily=Verdana;fontSize=8;align=center;" parent="gCNTeTK20-_O6Kn0fKNS-9" vertex="1">
          <mxGeometry x="60" y="30" width="70" height="37" as="geometry" />
        </mxCell>
        <mxCell id="gCNTeTK20-_O6Kn0fKNS-66" style="edgeStyle=orthogonalEdgeStyle;rounded=0;orthogonalLoop=1;jettySize=auto;html=1;" parent="1" source="gCNTeTK20-_O6Kn0fKNS-67" target="gCNTeTK20-_O6Kn0fKNS-62" edge="1">
          <mxGeometry relative="1" as="geometry">
            <Array as="points">
              <mxPoint x="300" y="376" />
            </Array>
          </mxGeometry>
        </mxCell>
        <mxCell id="gCNTeTK20-_O6Kn0fKNS-74" style="edgeStyle=orthogonalEdgeStyle;rounded=0;orthogonalLoop=1;jettySize=auto;html=1;exitX=0.75;exitY=0;exitDx=0;exitDy=0;entryX=0.5;entryY=1;entryDx=0;entryDy=0;" parent="1" source="gCNTeTK20-_O6Kn0fKNS-67" target="gCNTeTK20-_O6Kn0fKNS-70" edge="1">
          <mxGeometry relative="1" as="geometry">
            <Array as="points">
              <mxPoint x="395" y="357" />
            </Array>
          </mxGeometry>
        </mxCell>
        <mxCell id="gCNTeTK20-_O6Kn0fKNS-67" value="Horarios" style="rounded=1;whiteSpace=wrap;html=1;shadow=0;labelBackgroundColor=none;strokeWidth=1;fontFamily=Verdana;fontSize=8;align=center;" parent="1" vertex="1">
          <mxGeometry x="340" y="357" width="70" height="37" as="geometry" />
        </mxCell>
        <mxCell id="gCNTeTK20-_O6Kn0fKNS-68" style="edgeStyle=orthogonalEdgeStyle;rounded=0;orthogonalLoop=1;jettySize=auto;html=1;" parent="1" source="gCNTeTK20-_O6Kn0fKNS-64" target="gCNTeTK20-_O6Kn0fKNS-67" edge="1">
          <mxGeometry relative="1" as="geometry">
            <mxPoint x="375" y="209.99" as="sourcePoint" />
            <mxPoint x="365" y="640" as="targetPoint" />
          </mxGeometry>
        </mxCell>
        <mxCell id="gCNTeTK20-_O6Kn0fKNS-69" style="edgeStyle=orthogonalEdgeStyle;rounded=0;orthogonalLoop=1;jettySize=auto;html=1;entryX=0.5;entryY=1;entryDx=0;entryDy=0;" parent="1" source="gCNTeTK20-_O6Kn0fKNS-62" target="gCNTeTK20-_O6Kn0fKNS-67" edge="1">
          <mxGeometry relative="1" as="geometry">
            <mxPoint x="400" y="430" as="targetPoint" />
            <Array as="points">
              <mxPoint x="375" y="659" />
            </Array>
          </mxGeometry>
        </mxCell>
        <mxCell id="gCNTeTK20-_O6Kn0fKNS-78" style="edgeStyle=orthogonalEdgeStyle;rounded=0;orthogonalLoop=1;jettySize=auto;html=1;exitX=0.75;exitY=0;exitDx=0;exitDy=0;entryX=0.75;entryY=1;entryDx=0;entryDy=0;" parent="1" source="gCNTeTK20-_O6Kn0fKNS-11" target="gCNTeTK20-_O6Kn0fKNS-53" edge="1">
          <mxGeometry relative="1" as="geometry">
            <mxPoint x="530" y="440.0000000000001" as="targetPoint" />
          </mxGeometry>
        </mxCell>
        <mxCell id="gCNTeTK20-_O6Kn0fKNS-80" style="edgeStyle=orthogonalEdgeStyle;rounded=0;orthogonalLoop=1;jettySize=auto;html=1;exitX=0.25;exitY=1;exitDx=0;exitDy=0;entryX=0.25;entryY=0;entryDx=0;entryDy=0;" parent="1" source="gCNTeTK20-_O6Kn0fKNS-53" target="gCNTeTK20-_O6Kn0fKNS-11" edge="1">
          <mxGeometry relative="1" as="geometry" />
        </mxCell>
      </root>
    </mxGraphModel>
  </diagram>
</mxfile>
